Coordinates
version=1
nRows=10
nColumns=28
inDegrees=yes

Units are S.I. units (second, meters, Newtons, ...)
Angles are in degrees.

endheader
time	pelvis_tilt	pelvis_list	pelvis_rotation	pelvis_tx	pelvis_ty	pelvis_tz	hip_flexion_r	hip_adduction_r	hip_rotation_r	knee_angle_r	ankle_angle_r	subtalar_angle_r	mtp_angle_r	hip_flexion_l	hip_adduction_l	hip_rotation_l	knee_angle_l	socket_flexion	socket_adduction	socket_rotation	socket_tx	socket_ty	socket_tz	foot_flex	lumbar_extension	lumbar_bending	lumbar_rotation
      0.00000000	      4.45225189	     -9.22746021	    -16.83742868	     -0.86760745	      0.98852343	      0.33148256	    -29.19773009	      5.59084102	     17.20145777	     -9.17663704	      9.00531983	     -9.50933684	     23.13804286	     24.45719577	    -16.44478848	    -14.16593671	    -19.61341972	      0.00000000	      0.00000000	      0.00000000	      0.00000000	      0.00158262	      0.00000000	      2.88884420	    -16.51782840	      3.62832907	     22.87303470
      0.00416667	      4.35467407	     -9.31104990	    -16.85081635	     -0.86202444	      0.98776168	      0.33103899	    -29.22908641	      5.62283538	     17.17403508	     -9.51960910	      8.80344453	     -9.59096719	     23.12212322	     24.15812221	    -16.42206806	    -14.20502665	    -19.40406059	      0.00000000	      0.00000000	      0.00000000	      0.00000000	      0.00086026	      0.00000000	      2.59662919	    -16.35846827	      3.75536988	     22.87110125
      0.00833333	      4.25544364	     -9.39963502	    -16.88014564	     -0.85627131	      0.98698422	      0.33059464	    -29.23478926	      5.65941616	     17.15973089	     -9.92084006	      8.56375536	     -9.66874021	     23.11095353	     23.85999004	    -16.41240392	    -14.27186504	    -19.22428690	      0.00000000	      0.00000000	      0.00000000	      0.00000000	      0.00012144	      0.00000000	      2.28350307	    -16.20769167	      3.88483196	     22.87605560
      0.01250000	      4.16875487	     -9.44433290	    -16.78864355	     -0.85033862	      0.98620225	      0.33008830	    -29.33083584	      5.70322270	     17.21181992	    -10.17150615	      8.47894679	     -9.67951840	     23.10999407	     23.66874194	    -16.32890894	    -14.31330935	    -19.22142425	      0.00000000	      0.00000000	      0.00000000	      0.00000000	     -0.00030462	      0.00000000	      2.18808278	    -16.03523814	      3.95081409	     22.87902222
      0.01666667	      4.02524950	     -9.57345396	    -16.94571061	     -0.84417523	      0.98542575	      0.32972301	    -29.20979278	      5.73399412	     17.12471158	    -10.78488808	      8.04883147	     -9.80184432	     23.08742448	     23.25829224	    -16.39005396	    -14.40306046	    -18.85713038	      0.00000000	      0.00000000	      0.00000000	      0.00000000	     -0.00140848	      0.00000000	      1.63046671	    -15.87151486	      4.13758512	     22.88254969
      0.02083333	      3.90269960	     -9.66962063	    -17.02703290	     -0.83799060	      0.98467616	      0.32929920	    -29.14158734	      5.76282000	     17.13231576	    -11.31569540	      7.65220328	     -9.89850308	     23.10904165	     22.95933290	    -16.41012436	    -14.55297546	    -18.72534402	      0.00000000	      0.00000000	      0.00000000	      0.00000000	     -0.00222319	      0.00000000	      1.30299661	    -15.71058180	      4.26229647	     22.93374686
      0.02500000	      3.65818377	     -9.72655447	    -17.28183412	     -0.83162747	      0.98390973	      0.32916903	    -28.96971893	      5.72597229	     17.43356165	    -11.80242771	      6.97810552	    -10.35865485	     23.70364294	     22.71267105	    -16.49126449	    -14.86732805	    -18.57989084	      0.00000000	      0.00000000	      0.00000000	      0.00000000	     -0.00302330	      0.00000000	      1.02324842	    -15.37877935	      4.32661808	     23.37261122
      0.02916667	      3.56116845	     -9.79903755	    -17.28494331	     -0.82513292	      0.98316014	      0.32870728	    -28.94900770	      5.75899795	     17.41384661	    -12.29438117	      6.70327081	    -10.43316893	     23.73821444	     22.39356365	    -16.44602474	    -14.82892846	    -18.42956347	      0.00000000	      0.00000000	      0.00000000	      0.00000000	     -0.00392144	      0.00000000	      0.69232362	    -15.21137778	      4.43478465	     23.32056879
      0.03333333	      3.45709970	     -9.85992157	    -17.31937965	     -0.81864067	      0.98248849	      0.32825235	    -28.87053475	      5.77671780	     17.37659633	    -12.86976175	      6.28642004	    -10.51773558	     23.77909548	     22.08975961	    -16.40835977	    -14.89322658	    -18.32021533	      0.00000000	      0.00000000	      0.00000000	      0.00000000	     -0.00477699	      0.00000000	      0.35183309	    -15.04460746	      4.52737949	     23.27408996
      0.03750000	      3.34778313	     -9.89507591	    -17.36003747	     -0.81203869	      0.98183553	      0.32783752	    -28.77512985	      5.76916084	     17.35101101	    -13.44698778	      5.81244877	    -10.61203466	     23.84456249	     21.79804369	    -16.35248333	    -14.97611002	    -18.24339030	      0.00000000	      0.00000000	      0.00000000	      0.00000000	     -0.00567224	      0.00000000	      0.05060764	    -14.85034575	      4.58947550	     23.24642334
